<svg xmlns="http://www.w3.org/2000/svg" width="512" height="512" viewBox="0 0 512 512"><path d="M98 158 L128 158 Q142 158 142 172 L142 302 Q142 316 128 316 L98 316 Q84 316 84 302 L84 172 Q84 158 98 158 Z" fill="#e8eaf8" stroke="#00008b" stroke-width="7" stroke-linecap="round" stroke-linejoin="round"></path><path d="M98 300 L452 300 Q466 300 466 314 L466 338 Q466 352 452 352 L98 352 Q84 352 84 338 L84 314 Q84 300 98 300 Z" fill="#e8eaf8" stroke="#00008b" stroke-width="7" stroke-linecap="round" stroke-linejoin="round"></path><path d="M104 352 L104 398 M446 352 L446 398" fill="none" stroke="#00008b" stroke-width="8" stroke-linecap="round" stroke-linejoin="round"></path><path d="M166 270 L238 270 Q254 270 254 286 L254 294 Q254 310 238 310 L166 310 Q150 310 150 294 L150 286 Q150 270 166 270 Z" fill="#FFFFFF" stroke="#00008b" stroke-width="7" stroke-linecap="round" stroke-linejoin="round"></path><ellipse cx="206" cy="258" rx="44" ry="36" transform="rotate(-6 206 258)" fill="#FFFFFF" stroke="#00008b" stroke-width="7"></ellipse><path d="M250 300 C 300 292 340 292 360 296 C 388 264 424 268 434 300 C 452 302 452 300 452 306 L452 312 L250 312 Z" fill="#FFFFFF" stroke="#00008b" stroke-width="7" stroke-linecap="round" stroke-linejoin="round"></path><path d="M262 306 C 300 300 340 300 360 302 C 388 272 422 276 432 306 C 448 308 448 306 448 310 C 448 314 262 314 262 314 Z" fill="#Bcd7f6" stroke="#00008b" stroke-width="7" stroke-linecap="round" stroke-linejoin="round"></path><path d="M300 308 L306 300 M356 306 L360 296 M408 308 L412 300" fill="none" stroke="#00008b" stroke-width="3" stroke-linecap="round" stroke-linejoin="round"></path><text x="262" y="214" font-family="Georgia, serif" font-style="italic" font-weight="bold" font-size="34" fill="#00008b">z</text><text x="288" y="188" font-family="Georgia, serif" font-style="italic" font-weight="bold" font-size="26" fill="#00008b">z</text><text x="308" y="168" font-family="Georgia, serif" font-style="italic" font-weight="bold" font-size="19" fill="#00008b">z</text></svg>