<svg xmlns="http://www.w3.org/2000/svg" width="512" height="512" viewBox="0 0 512 512"><path d="M40 300 L150 300 L150 470 L40 470 Z" fill="#D9E8FB" stroke="#1B66DB" stroke-width="7" stroke-linecap="round" stroke-linejoin="round"></path><ellipse cx="430" cy="452" rx="30" ry="10.799999999999999" fill="#FFFFFF" stroke="#1B66DB" stroke-width="5"></ellipse><ellipse cx="430" cy="437" rx="30" ry="10.799999999999999" fill="#FFFFFF" stroke="#1B66DB" stroke-width="5"></ellipse><ellipse cx="430" cy="422" rx="30" ry="10.799999999999999" fill="#FFFFFF" stroke="#1B66DB" stroke-width="5"></ellipse><ellipse cx="430" cy="407" rx="30" ry="10.799999999999999" fill="#FFFFFF" stroke="#1B66DB" stroke-width="5"></ellipse><ellipse cx="430" cy="392" rx="30" ry="10.799999999999999" fill="#D9E8FB" stroke="#1B66DB" stroke-width="5"></ellipse><ellipse cx="470" cy="452" rx="26" ry="9.36" fill="#FFFFFF" stroke="#1B66DB" stroke-width="5"></ellipse><ellipse cx="470" cy="439" rx="26" ry="9.36" fill="#FFFFFF" stroke="#1B66DB" stroke-width="5"></ellipse><ellipse cx="470" cy="426" rx="26" ry="9.36" fill="#D9E8FB" stroke="#1B66DB" stroke-width="5"></ellipse><g transform="translate(150 258) scale(0.95)"><path d="M-6 -6 C -30 6 -50 14 -60 20" fill="none" stroke="#1B66DB" stroke-width="17" stroke-linecap="round" stroke-linejoin="round"></path><path d="M-6 -6 C -30 6 -50 14 -60 20" fill="none" stroke="#FFFFFF" stroke-width="7" stroke-linecap="round" stroke-linejoin="round"></path><path d="M8 -4 C 30 8 44 18 52 30" fill="none" stroke="#1B66DB" stroke-width="17" stroke-linecap="round" stroke-linejoin="round"></path><path d="M8 -4 C 30 8 44 18 52 30" fill="none" stroke="#FFFFFF" stroke-width="7" stroke-linecap="round" stroke-linejoin="round"></path><ellipse cx="-62" cy="22" rx="15" ry="9" transform="rotate(-16 -62 22)" fill="#FFFFFF" stroke="#1B66DB" stroke-width="7"></ellipse><ellipse cx="54" cy="32" rx="15" ry="9" transform="rotate(20 54 32)" fill="#FFFFFF" stroke="#1B66DB" stroke-width="7"></ellipse><path d="M-24 6 C -34 -26 -34 -58 -26 -82 L24 -82 C32 -58 34 -26 26 6 C8 14 -8 14 -24 6 Z" fill="#FFFFFF" stroke="#1B66DB" stroke-width="7" stroke-linecap="round" stroke-linejoin="round"></path><path d="M-22 -70 C 0 -84 26 -88 48 -84" fill="none" stroke="#1B66DB" stroke-width="17" stroke-linecap="round" stroke-linejoin="round"></path><path d="M-22 -70 C 0 -84 26 -88 48 -84" fill="none" stroke="#FFFFFF" stroke-width="7" stroke-linecap="round" stroke-linejoin="round"></path><path d="M24 -72 C 40 -80 58 -84 76 -86" fill="none" stroke="#1B66DB" stroke-width="17" stroke-linecap="round" stroke-linejoin="round"></path><path d="M24 -72 C 40 -80 58 -84 76 -86" fill="none" stroke="#FFFFFF" stroke-width="7" stroke-linecap="round" stroke-linejoin="round"></path><ellipse cx="0" cy="-124" rx="50" ry="42" transform="rotate(4 0 -124)" fill="#FFFFFF" stroke="#1B66DB" stroke-width="7"></ellipse></g><path d="M222 168 L 400 150" fill="none" stroke="#1B66DB" stroke-width="6" stroke-linecap="round" stroke-linejoin="round"></path><path d="M400 150 L 402 300" fill="none" stroke="#Bcd7f6" stroke-width="3" stroke-linecap="round" stroke-linejoin="round"></path><g transform="translate(402 320) rotate(0) scale(0.7)"><path d="M-30 -16 L 30 -16 L 30 16 L -30 16 Z" fill="#FFFFFF" stroke="#1B66DB" stroke-width="7" stroke-linecap="round" stroke-linejoin="round"></path><circle cx="0" cy="0" r="8" fill="none" stroke="#1B66DB" stroke-width="4"></circle><text x="0" y="1" font-family="Arial, sans-serif" font-weight="bold" font-size="19.599999999999998" fill="#1B66DB" text-anchor="middle" dominant-baseline="middle">$</text><path d="M-24 -10 L -18 -10 M18 10 L 24 10" fill="none" stroke="#1B66DB" stroke-width="3" stroke-linecap="round" stroke-linejoin="round"></path></g><path d="M402 336 C 400 346 404 352 408 356" fill="none" stroke="#1B66DB" stroke-width="3" stroke-linecap="round" stroke-linejoin="round"></path></svg>