<svg xmlns="http://www.w3.org/2000/svg" width="512" height="512" viewBox="0 0 512 512"><g transform="translate(246 252) scale(1.22)"><path d="M-14 124 C -16 140 -17 152 -18 162" fill="none" stroke="#00008b" stroke-width="18" stroke-linecap="round" stroke-linejoin="round"></path><path d="M-14 124 C -16 140 -17 152 -18 162" fill="none" stroke="#FFFFFF" stroke-width="8" stroke-linecap="round" stroke-linejoin="round"></path><path d="M16 124 C 18 140 19 152 20 162" fill="none" stroke="#00008b" stroke-width="18" stroke-linecap="round" stroke-linejoin="round"></path><path d="M16 124 C 18 140 19 152 20 162" fill="none" stroke="#FFFFFF" stroke-width="8" stroke-linecap="round" stroke-linejoin="round"></path><ellipse cx="-34" cy="170" rx="33" ry="13" transform="rotate(-5 -34 170)" fill="#FFFFFF" stroke="#00008b" stroke-width="7"></ellipse><ellipse cx="40" cy="170" rx="33" ry="13" transform="rotate(5 40 170)" fill="#FFFFFF" stroke="#00008b" stroke-width="7"></ellipse><path d="M-24 -52 C -30 0 -32 60 -28 128 L 30 128 C 34 60 32 0 26 -52 Z" fill="#FFFFFF" stroke="#00008b" stroke-width="7" stroke-linecap="round" stroke-linejoin="round"></path><path d="M-24 -40 C -36 -10 -40 20 -42 48" fill="none" stroke="#00008b" stroke-width="18" stroke-linecap="round" stroke-linejoin="round"></path><path d="M-24 -40 C -36 -10 -40 20 -42 48" fill="none" stroke="#FFFFFF" stroke-width="8" stroke-linecap="round" stroke-linejoin="round"></path><path d="M26 -40 C 56 -44 82 -64 98 -94" fill="none" stroke="#00008b" stroke-width="18" stroke-linecap="round" stroke-linejoin="round"></path><path d="M26 -40 C 56 -44 82 -64 98 -94" fill="none" stroke="#FFFFFF" stroke-width="8" stroke-linecap="round" stroke-linejoin="round"></path><ellipse cx="0" cy="-108" rx="72" ry="58" transform="rotate(-6 0 -108)" fill="#FFFFFF" stroke="#00008b" stroke-width="7"></ellipse></g><path d="M373.4 96 L359.4 86.2" fill="none" stroke="#00008b" stroke-width="6" stroke-linecap="round" stroke-linejoin="round"></path><path d="M400 87.6 L400 70.80000000000001" fill="none" stroke="#00008b" stroke-width="6" stroke-linecap="round" stroke-linejoin="round"></path><path d="M426.6 96 L440.6 86.2" fill="none" stroke="#00008b" stroke-width="6" stroke-linecap="round" stroke-linejoin="round"></path><path d="M363.6 114.2 L346.8 112.8" fill="none" stroke="#00008b" stroke-width="6" stroke-linecap="round" stroke-linejoin="round"></path><path d="M436.4 114.2 L453.2 112.8" fill="none" stroke="#00008b" stroke-width="6" stroke-linecap="round" stroke-linejoin="round"></path></svg>