<svg xmlns="http://www.w3.org/2000/svg" width="512" height="512" viewBox="0 0 512 512"><g transform="translate(196 258) scale(1.12)"><path d="M-14 124 C -16 140 -17 152 -18 162" fill="none" stroke="#1B66DB" stroke-width="18" stroke-linecap="round" stroke-linejoin="round"></path><path d="M-14 124 C -16 140 -17 152 -18 162" fill="none" stroke="#FFFFFF" stroke-width="8" stroke-linecap="round" stroke-linejoin="round"></path><path d="M16 124 C 18 140 19 152 20 162" fill="none" stroke="#1B66DB" stroke-width="18" stroke-linecap="round" stroke-linejoin="round"></path><path d="M16 124 C 18 140 19 152 20 162" fill="none" stroke="#FFFFFF" stroke-width="8" stroke-linecap="round" stroke-linejoin="round"></path><ellipse cx="-34" cy="170" rx="33" ry="13" transform="rotate(-5 -34 170)" fill="#FFFFFF" stroke="#1B66DB" stroke-width="7"></ellipse><ellipse cx="40" cy="170" rx="33" ry="13" transform="rotate(5 40 170)" fill="#FFFFFF" stroke="#1B66DB" stroke-width="7"></ellipse><path d="M-24 -52 C -30 0 -32 60 -28 128 L 30 128 C 34 60 32 0 26 -52 Z" fill="#FFFFFF" stroke="#1B66DB" stroke-width="7" stroke-linecap="round" stroke-linejoin="round"></path><path d="M-24 -36 C -16 -12 -8 6 6 14" fill="none" stroke="#1B66DB" stroke-width="18" stroke-linecap="round" stroke-linejoin="round"></path><path d="M-24 -36 C -16 -12 -8 6 6 14" fill="none" stroke="#FFFFFF" stroke-width="8" stroke-linecap="round" stroke-linejoin="round"></path><path d="M26 -36 C 40 -16 52 -2 62 6" fill="none" stroke="#1B66DB" stroke-width="18" stroke-linecap="round" stroke-linejoin="round"></path><path d="M26 -36 C 40 -16 52 -2 62 6" fill="none" stroke="#FFFFFF" stroke-width="8" stroke-linecap="round" stroke-linejoin="round"></path><ellipse cx="0" cy="-108" rx="72" ry="58" transform="rotate(6 0 -108)" fill="#FFFFFF" stroke="#1B66DB" stroke-width="7"></ellipse></g><g transform="translate(330 240) rotate(6)"><path d="M-46 -80 C -50 -80 -52 -78 -52 -72 L -52 88 C -52 94 -50 96 -44 96 L 44 96 C 50 96 52 94 52 88 L 52 -72 C 52 -78 50 -80 46 -80 Z" fill="#D9E8FB" stroke="#1B66DB" stroke-width="7" stroke-linecap="round" stroke-linejoin="round"></path><circle cx="0" cy="0" r="34" fill="#FFFFFF" stroke="#1B66DB" stroke-width="7"></circle><path d="M-14 2 L -4 14 L 18 -12" fill="none" stroke="#1B66DB" stroke-width="8" stroke-linecap="round" stroke-linejoin="round"></path></g><path d="M307.2 104 L295.2 95.6" fill="none" stroke="#1B66DB" stroke-width="6" stroke-linecap="round" stroke-linejoin="round"></path><path d="M330 96.8 L330 82.4" fill="none" stroke="#1B66DB" stroke-width="6" stroke-linecap="round" stroke-linejoin="round"></path><path d="M352.8 104 L364.8 95.6" fill="none" stroke="#1B66DB" stroke-width="6" stroke-linecap="round" stroke-linejoin="round"></path><path d="M298.8 119.6 L284.4 118.4" fill="none" stroke="#1B66DB" stroke-width="6" stroke-linecap="round" stroke-linejoin="round"></path><path d="M361.2 119.6 L375.6 118.4" fill="none" stroke="#1B66DB" stroke-width="6" stroke-linecap="round" stroke-linejoin="round"></path></svg>