<svg xmlns="http://www.w3.org/2000/svg" width="512" height="512" viewBox="0 0 512 512"><g transform="translate(340 352)"><ellipse cx="0" cy="0" rx="86" ry="62" fill="#D9E8FB" stroke="#1B66DB" stroke-width="7"></ellipse><ellipse cx="-78" cy="-6" rx="20" ry="16" transform="rotate(-20 -78 -6)" fill="#D9E8FB" stroke="#1B66DB" stroke-width="7"></ellipse><path d="M28 -52 C 36 -66 52 -70 60 -64 C 66 -58 62 -46 52 -42 Z" fill="#D9E8FB" stroke="#1B66DB" stroke-width="7" stroke-linecap="round" stroke-linejoin="round"></path><path d="M-26 -58 L 24 -58" fill="none" stroke="#1B66DB" stroke-width="8" stroke-linecap="round" stroke-linejoin="round"></path><path d="M-44 56 L -44 78" fill="none" stroke="#1B66DB" stroke-width="14" stroke-linecap="round" stroke-linejoin="round"></path><path d="M-44 56 L -44 78" fill="none" stroke="#FFFFFF" stroke-width="4" stroke-linecap="round" stroke-linejoin="round"></path><path d="M40 56 L 40 78" fill="none" stroke="#1B66DB" stroke-width="14" stroke-linecap="round" stroke-linejoin="round"></path><path d="M40 56 L 40 78" fill="none" stroke="#FFFFFF" stroke-width="4" stroke-linecap="round" stroke-linejoin="round"></path><circle cx="-52" cy="-14" r="6" fill="#1B66DB" stroke="none" stroke-width="0"></circle></g><g transform="translate(150 250) scale(1.02)"><path d="M-14 124 C -16 140 -17 152 -18 162" fill="none" stroke="#1B66DB" stroke-width="18" stroke-linecap="round" stroke-linejoin="round"></path><path d="M-14 124 C -16 140 -17 152 -18 162" fill="none" stroke="#FFFFFF" stroke-width="8" stroke-linecap="round" stroke-linejoin="round"></path><path d="M16 124 C 18 140 19 152 20 162" fill="none" stroke="#1B66DB" stroke-width="18" stroke-linecap="round" stroke-linejoin="round"></path><path d="M16 124 C 18 140 19 152 20 162" fill="none" stroke="#FFFFFF" stroke-width="8" stroke-linecap="round" stroke-linejoin="round"></path><ellipse cx="-34" cy="170" rx="33" ry="13" transform="rotate(-5 -34 170)" fill="#FFFFFF" stroke="#1B66DB" stroke-width="7"></ellipse><ellipse cx="40" cy="170" rx="33" ry="13" transform="rotate(5 40 170)" fill="#FFFFFF" stroke="#1B66DB" stroke-width="7"></ellipse><path d="M-24 -52 C -30 0 -32 60 -28 128 L 30 128 C 34 60 32 0 26 -52 Z" fill="#FFFFFF" stroke="#1B66DB" stroke-width="7" stroke-linecap="round" stroke-linejoin="round"></path><path d="M-24 -36 C -34 -8 -38 22 -40 48" fill="none" stroke="#1B66DB" stroke-width="18" stroke-linecap="round" stroke-linejoin="round"></path><path d="M-24 -36 C -34 -8 -38 22 -40 48" fill="none" stroke="#FFFFFF" stroke-width="8" stroke-linecap="round" stroke-linejoin="round"></path><path d="M26 -40 C 56 -44 84 -52 106 -62" fill="none" stroke="#1B66DB" stroke-width="18" stroke-linecap="round" stroke-linejoin="round"></path><path d="M26 -40 C 56 -44 84 -52 106 -62" fill="none" stroke="#FFFFFF" stroke-width="8" stroke-linecap="round" stroke-linejoin="round"></path><ellipse cx="10" cy="-108" rx="72" ry="58" transform="rotate(10 10 -108)" fill="#FFFFFF" stroke="#1B66DB" stroke-width="7"></ellipse></g><circle cx="282" cy="178" r="24" fill="#D9E8FB" stroke="#1B66DB" stroke-width="7"></circle><circle cx="282" cy="178" r="13.200000000000001" fill="none" stroke="#1B66DB" stroke-width="5"></circle><path d="M282 214 L 288 244" fill="none" stroke="#1B66DB" stroke-width="6" stroke-linecap="round" stroke-linejoin="round"></path><path d="M296 152 L 304 124" fill="none" stroke="#1B66DB" stroke-width="6" stroke-linecap="round" stroke-linejoin="round"></path></svg>