<svg xmlns="http://www.w3.org/2000/svg" width="512" height="512" viewBox="0 0 512 512"><g transform="translate(256 286) scale(1.02)"><path d="M-14 124 C -16 140 -17 152 -18 162" fill="none" stroke="#00008b" stroke-width="18" stroke-linecap="round" stroke-linejoin="round"></path><path d="M-14 124 C -16 140 -17 152 -18 162" fill="none" stroke="#FFFFFF" stroke-width="8" stroke-linecap="round" stroke-linejoin="round"></path><path d="M16 124 C 18 140 19 152 20 162" fill="none" stroke="#00008b" stroke-width="18" stroke-linecap="round" stroke-linejoin="round"></path><path d="M16 124 C 18 140 19 152 20 162" fill="none" stroke="#FFFFFF" stroke-width="8" stroke-linecap="round" stroke-linejoin="round"></path><ellipse cx="-34" cy="170" rx="33" ry="13" transform="rotate(-5 -34 170)" fill="#FFFFFF" stroke="#00008b" stroke-width="7"></ellipse><ellipse cx="40" cy="170" rx="33" ry="13" transform="rotate(5 40 170)" fill="#FFFFFF" stroke="#00008b" stroke-width="7"></ellipse><path d="M-24 -52 C -30 0 -32 60 -28 128 L 30 128 C 34 60 32 0 26 -52 Z" fill="#FFFFFF" stroke="#00008b" stroke-width="7" stroke-linecap="round" stroke-linejoin="round"></path><path d="M-24 -40 C -48 -32 -64 -40 -74 -54" fill="none" stroke="#00008b" stroke-width="18" stroke-linecap="round" stroke-linejoin="round"></path><path d="M-24 -40 C -48 -32 -64 -40 -74 -54" fill="none" stroke="#FFFFFF" stroke-width="8" stroke-linecap="round" stroke-linejoin="round"></path><path d="M26 -40 C 50 -32 66 -40 76 -54" fill="none" stroke="#00008b" stroke-width="18" stroke-linecap="round" stroke-linejoin="round"></path><path d="M26 -40 C 50 -32 66 -40 76 -54" fill="none" stroke="#FFFFFF" stroke-width="8" stroke-linecap="round" stroke-linejoin="round"></path><ellipse cx="0" cy="-108" rx="72" ry="58" fill="#FFFFFF" stroke="#00008b" stroke-width="7"></ellipse></g><g transform="translate(256 52)"><path d="M-64 22 C -96 22 -96 -18 -62 -18 C -58 -46 -18 -54 0 -34 C 12 -52 52 -46 52 -18 C 84 -18 84 22 56 22" fill="none" stroke="#00008b" stroke-width="7" stroke-linecap="round" stroke-linejoin="round"></path><path d="M-26 44 L 26 -4" fill="none" stroke="#00008b" stroke-width="7" stroke-linecap="round" stroke-linejoin="round"></path></g></svg>