<svg xmlns="http://www.w3.org/2000/svg" width="512" height="512" viewBox="0 0 512 512"><g transform="translate(210 262) scale(1.1)"><path d="M-14 124 C -16 140 -17 152 -18 162" fill="none" stroke="#00008b" stroke-width="18" stroke-linecap="round" stroke-linejoin="round"></path><path d="M-14 124 C -16 140 -17 152 -18 162" fill="none" stroke="#FFFFFF" stroke-width="8" stroke-linecap="round" stroke-linejoin="round"></path><path d="M16 124 C 18 140 19 152 20 162" fill="none" stroke="#00008b" stroke-width="18" stroke-linecap="round" stroke-linejoin="round"></path><path d="M16 124 C 18 140 19 152 20 162" fill="none" stroke="#FFFFFF" stroke-width="8" stroke-linecap="round" stroke-linejoin="round"></path><ellipse cx="-34" cy="170" rx="33" ry="13" transform="rotate(-5 -34 170)" fill="#FFFFFF" stroke="#00008b" stroke-width="7"></ellipse><ellipse cx="40" cy="170" rx="33" ry="13" transform="rotate(5 40 170)" fill="#FFFFFF" stroke="#00008b" stroke-width="7"></ellipse><path d="M-24 -52 C -30 0 -32 60 -28 128 L 30 128 C 34 60 32 0 26 -52 Z" fill="#FFFFFF" stroke="#00008b" stroke-width="7" stroke-linecap="round" stroke-linejoin="round"></path><path d="M-24 -36 C -34 -8 -38 22 -40 48" fill="none" stroke="#00008b" stroke-width="18" stroke-linecap="round" stroke-linejoin="round"></path><path d="M-24 -36 C -34 -8 -38 22 -40 48" fill="none" stroke="#FFFFFF" stroke-width="8" stroke-linecap="round" stroke-linejoin="round"></path><path d="M26 -40 C 48 -32 68 -18 86 4" fill="none" stroke="#00008b" stroke-width="18" stroke-linecap="round" stroke-linejoin="round"></path><path d="M26 -40 C 48 -32 68 -18 86 4" fill="none" stroke="#FFFFFF" stroke-width="8" stroke-linecap="round" stroke-linejoin="round"></path><ellipse cx="12" cy="-108" rx="72" ry="58" transform="rotate(14 12 -108)" fill="#FFFFFF" stroke="#00008b" stroke-width="7"></ellipse></g><g transform="translate(304 249) rotate(-18)"><circle cx="0" cy="-34" r="52" fill="#e8eaf8" stroke="#00008b" stroke-width="9"></circle><circle cx="0" cy="-34" r="34" fill="#FFFFFF" stroke="none" stroke-width="0"></circle><path d="M0 20 L 0 78" fill="none" stroke="#00008b" stroke-width="22" stroke-linecap="round" stroke-linejoin="round"></path><path d="M0 20 L 0 78" fill="none" stroke="#FFFFFF" stroke-width="12" stroke-linecap="round" stroke-linejoin="round"></path></g><path d="M120 120 L 148 120" fill="none" stroke="#00008b" stroke-width="6" stroke-linecap="round" stroke-linejoin="round"></path><path d="M104 156 L 124 156" fill="none" stroke="#00008b" stroke-width="6" stroke-linecap="round" stroke-linejoin="round"></path></svg>