<svg xmlns="http://www.w3.org/2000/svg" width="512" height="512" viewBox="0 0 512 512"><path d="M120 250 C 118 220 182 220 180 250 Z" fill="#FFFFFF" stroke="#00008b" stroke-width="7" stroke-linecap="round" stroke-linejoin="round"></path><ellipse cx="150" cy="210" rx="30" ry="24.599999999999998" fill="#FFFFFF" stroke="#00008b" stroke-width="7"></ellipse><path d="M226 244 C 224 214 288 214 286 244 Z" fill="#FFFFFF" stroke="#00008b" stroke-width="7" stroke-linecap="round" stroke-linejoin="round"></path><ellipse cx="256" cy="204" rx="30" ry="24.599999999999998" fill="#FFFFFF" stroke="#00008b" stroke-width="7"></ellipse><path d="M332 250 C 330 220 394 220 392 250 Z" fill="#FFFFFF" stroke="#00008b" stroke-width="7" stroke-linecap="round" stroke-linejoin="round"></path><ellipse cx="362" cy="210" rx="30" ry="24.599999999999998" fill="#FFFFFF" stroke="#00008b" stroke-width="7"></ellipse><path d="M128 236 C 120 260 124 282 134 290" fill="none" stroke="#00008b" stroke-width="15" stroke-linecap="round" stroke-linejoin="round"></path><path d="M128 236 C 120 260 124 282 134 290" fill="none" stroke="#FFFFFF" stroke-width="6" stroke-linecap="round" stroke-linejoin="round"></path><path d="M172 236 C 180 260 176 282 166 290" fill="none" stroke="#00008b" stroke-width="15" stroke-linecap="round" stroke-linejoin="round"></path><path d="M172 236 C 180 260 176 282 166 290" fill="none" stroke="#FFFFFF" stroke-width="6" stroke-linecap="round" stroke-linejoin="round"></path><path d="M340 236 C 332 260 336 282 346 290" fill="none" stroke="#00008b" stroke-width="15" stroke-linecap="round" stroke-linejoin="round"></path><path d="M340 236 C 332 260 336 282 346 290" fill="none" stroke="#FFFFFF" stroke-width="6" stroke-linecap="round" stroke-linejoin="round"></path><path d="M384 236 C 392 260 388 282 378 290" fill="none" stroke="#00008b" stroke-width="15" stroke-linecap="round" stroke-linejoin="round"></path><path d="M384 236 C 392 260 388 282 378 290" fill="none" stroke="#FFFFFF" stroke-width="6" stroke-linecap="round" stroke-linejoin="round"></path><path d="M135.04000000000002 358 L 135.04000000000002 422" fill="none" stroke="#00008b" stroke-width="8" stroke-linecap="round" stroke-linejoin="round"></path><path d="M376.96 358 L 376.96 422" fill="none" stroke="#00008b" stroke-width="8" stroke-linecap="round" stroke-linejoin="round"></path><path d="M88 296 A 168 56 0 0 0 424 296 L 424 314 A 168 56 0 0 1 88 314 Z" fill="#e8eaf8" stroke="#00008b" stroke-width="7" stroke-linecap="round" stroke-linejoin="round"></path><ellipse cx="256" cy="296" rx="168" ry="56" fill="#FFFFFF" stroke="#00008b" stroke-width="7"></ellipse><g transform="translate(210 300) rotate(-8)"><path d="M-16 -20 L16 -20 L16 20 L-16 20 Z" fill="#FFFFFF" stroke="#00008b" stroke-width="7" stroke-linecap="round" stroke-linejoin="round"></path><path d="M-9 -8 L9 -8 M-9 2 L9 2 M-9 12 L4 12" fill="none" stroke="#00008b" stroke-width="3" stroke-linecap="round" stroke-linejoin="round"></path></g><g transform="translate(300 306) rotate(10)"><path d="M-16 -20 L16 -20 L16 20 L-16 20 Z" fill="#FFFFFF" stroke="#00008b" stroke-width="7" stroke-linecap="round" stroke-linejoin="round"></path><path d="M-9 -8 L9 -8 M-9 2 L9 2 M-9 12 L4 12" fill="none" stroke="#00008b" stroke-width="3" stroke-linecap="round" stroke-linejoin="round"></path></g><path d="M247 278 L265 278 L263 294 L249 294 Z" fill="#e8eaf8" stroke="#00008b" stroke-width="7" stroke-linecap="round" stroke-linejoin="round"></path><ellipse cx="256" cy="278" rx="9" ry="3" fill="#FFFFFF" stroke="#00008b" stroke-width="4"></ellipse><path d="M162 422 L 162 352 C 162 336 230 336 230 352 L 230 422" fill="none" stroke="#Bcd7f6" stroke-width="7" stroke-linecap="round" stroke-linejoin="round"></path><path d="M166 426 C 162 376 230 376 226 426 Z" fill="#FFFFFF" stroke="#00008b" stroke-width="7" stroke-linecap="round" stroke-linejoin="round"></path><ellipse cx="196" cy="358" rx="34" ry="29.24" fill="#FFFFFF" stroke="#00008b" stroke-width="7"></ellipse><path d="M282 422 L 282 352 C 282 336 350 336 350 352 L 350 422" fill="none" stroke="#Bcd7f6" stroke-width="7" stroke-linecap="round" stroke-linejoin="round"></path><path d="M286 426 C 282 376 350 376 346 426 Z" fill="#FFFFFF" stroke="#00008b" stroke-width="7" stroke-linecap="round" stroke-linejoin="round"></path><ellipse cx="316" cy="358" rx="34" ry="29.24" fill="#FFFFFF" stroke="#00008b" stroke-width="7"></ellipse></svg>