<svg xmlns="http://www.w3.org/2000/svg" width="512" height="512" viewBox="0 0 512 512"><path d="M120 250 C 118 220 182 220 180 250 Z" fill="#FFFFFF" stroke="#00008b" stroke-width="7" stroke-linecap="round" stroke-linejoin="round"></path><ellipse cx="150" cy="210" rx="30" ry="24.599999999999998" fill="#FFFFFF" stroke="#00008b" stroke-width="7"></ellipse><path d="M332 250 C 330 220 394 220 392 250 Z" fill="#FFFFFF" stroke="#00008b" stroke-width="7" stroke-linecap="round" stroke-linejoin="round"></path><ellipse cx="362" cy="210" rx="30" ry="24.599999999999998" fill="#FFFFFF" stroke="#00008b" stroke-width="7"></ellipse><path d="M132.16000000000003 362 L 132.16000000000003 426" fill="none" stroke="#00008b" stroke-width="8" stroke-linecap="round" stroke-linejoin="round"></path><path d="M379.84 362 L 379.84 426" fill="none" stroke="#00008b" stroke-width="8" stroke-linecap="round" stroke-linejoin="round"></path><path d="M84 300 A 172 56 0 0 0 428 300 L 428 318 A 172 56 0 0 1 84 318 Z" fill="#e8eaf8" stroke="#00008b" stroke-width="7" stroke-linecap="round" stroke-linejoin="round"></path><ellipse cx="256" cy="300" rx="172" ry="56" fill="#FFFFFF" stroke="#00008b" stroke-width="7"></ellipse><g><path d="M90 236 C 88 206 152 206 150 236 Z" fill="#FFFFFF" stroke="#00008b" stroke-width="7" stroke-linecap="round" stroke-linejoin="round"></path><ellipse cx="120" cy="196" rx="32" ry="26.24" fill="#FFFFFF" stroke="#00008b" stroke-width="7"></ellipse><path d="M132 224 C 176 250 210 268 244 282" fill="none" stroke="#00008b" stroke-width="15" stroke-linecap="round" stroke-linejoin="round"></path><path d="M132 224 C 176 250 210 268 244 282" fill="none" stroke="#FFFFFF" stroke-width="6" stroke-linecap="round" stroke-linejoin="round"></path><path d="M362 236 C 360 206 424 206 422 236 Z" fill="#FFFFFF" stroke="#00008b" stroke-width="7" stroke-linecap="round" stroke-linejoin="round"></path><ellipse cx="392" cy="196" rx="32" ry="26.24" fill="#FFFFFF" stroke="#00008b" stroke-width="7"></ellipse><path d="M380 224 C 336 250 302 268 268 282" fill="none" stroke="#00008b" stroke-width="15" stroke-linecap="round" stroke-linejoin="round"></path><path d="M380 224 C 336 250 302 268 268 282" fill="none" stroke="#FFFFFF" stroke-width="6" stroke-linecap="round" stroke-linejoin="round"></path><ellipse cx="256" cy="286" rx="20" ry="13" fill="#FFFFFF" stroke="#00008b" stroke-width="6"></ellipse></g><g transform="translate(316 306) rotate(8)"><path d="M-16 -20 L16 -20 L16 20 L-16 20 Z" fill="#FFFFFF" stroke="#00008b" stroke-width="7" stroke-linecap="round" stroke-linejoin="round"></path><path d="M-9 -8 L9 -8 M-9 2 L9 2 M-9 12 L4 12" fill="none" stroke="#00008b" stroke-width="3" stroke-linecap="round" stroke-linejoin="round"></path></g><path d="M197 288 L215 288 L213 304 L199 304 Z" fill="#e8eaf8" stroke="#00008b" stroke-width="7" stroke-linecap="round" stroke-linejoin="round"></path><ellipse cx="206" cy="288" rx="9" ry="3" fill="#FFFFFF" stroke="#00008b" stroke-width="4"></ellipse><path d="M222 424 L 222 354 C 222 338 290 338 290 354 L 290 424" fill="none" stroke="#Bcd7f6" stroke-width="7" stroke-linecap="round" stroke-linejoin="round"></path><path d="M226 428 C 222 378 290 378 286 428 Z" fill="#FFFFFF" stroke="#00008b" stroke-width="7" stroke-linecap="round" stroke-linejoin="round"></path><ellipse cx="256" cy="360" rx="34" ry="29.24" fill="#FFFFFF" stroke="#00008b" stroke-width="7"></ellipse></svg>