<svg xmlns="http://www.w3.org/2000/svg" width="512" height="512" viewBox="0 0 512 512"><path d="M120 254 C 118 224 182 224 180 254 Z" fill="#FFFFFF" stroke="#00008b" stroke-width="7" stroke-linecap="round" stroke-linejoin="round"></path><ellipse cx="150" cy="214" rx="30" ry="24.599999999999998" fill="#FFFFFF" stroke="#00008b" stroke-width="7"></ellipse><path d="M226 248 C 224 218 288 218 286 248 Z" fill="#FFFFFF" stroke="#00008b" stroke-width="7" stroke-linecap="round" stroke-linejoin="round"></path><ellipse cx="256" cy="208" rx="30" ry="24.599999999999998" fill="#FFFFFF" stroke="#00008b" stroke-width="7"></ellipse><path d="M332 254 C 330 224 394 224 392 254 Z" fill="#FFFFFF" stroke="#00008b" stroke-width="7" stroke-linecap="round" stroke-linejoin="round"></path><ellipse cx="362" cy="214" rx="30" ry="24.599999999999998" fill="#FFFFFF" stroke="#00008b" stroke-width="7"></ellipse><path d="M137.92000000000002 364 L 137.92000000000002 428" fill="none" stroke="#00008b" stroke-width="8" stroke-linecap="round" stroke-linejoin="round"></path><path d="M374.08 364 L 374.08 428" fill="none" stroke="#00008b" stroke-width="8" stroke-linecap="round" stroke-linejoin="round"></path><path d="M92 300 A 164 58 0 0 0 420 300 L 420 318 A 164 58 0 0 1 92 318 Z" fill="#00008b" stroke="#00008b" stroke-width="7" stroke-linecap="round" stroke-linejoin="round"></path><ellipse cx="256" cy="300" rx="164" ry="58" fill="#FFFFFF" stroke="#00008b" stroke-width="7"></ellipse><path d="M197 282 L215 282 L213 298 L199 298 Z" fill="#00008b" stroke="#00008b" stroke-width="7" stroke-linecap="round" stroke-linejoin="round"></path><ellipse cx="206" cy="282" rx="9" ry="3" fill="#FFFFFF" stroke="#00008b" stroke-width="4"></ellipse><path d="M204 274 C 200 268 208 264 204 258" fill="none" stroke="#00008b" stroke-width="3" stroke-linecap="round" stroke-linejoin="round"></path><path d="M297 282 L315 282 L313 298 L299 298 Z" fill="#00008b" stroke="#00008b" stroke-width="7" stroke-linecap="round" stroke-linejoin="round"></path><ellipse cx="306" cy="282" rx="9" ry="3" fill="#FFFFFF" stroke="#00008b" stroke-width="4"></ellipse><path d="M304 274 C 300 268 308 264 304 258" fill="none" stroke="#00008b" stroke-width="3" stroke-linecap="round" stroke-linejoin="round"></path><path d="M247 288 L265 288 L263 304 L249 304 Z" fill="#00008b" stroke="#00008b" stroke-width="7" stroke-linecap="round" stroke-linejoin="round"></path><ellipse cx="256" cy="288" rx="9" ry="3" fill="#FFFFFF" stroke="#00008b" stroke-width="4"></ellipse><path d="M166 424 L 166 354 C 166 338 234 338 234 354 L 234 424" fill="none" stroke="#00008b" stroke-width="7" stroke-linecap="round" stroke-linejoin="round"></path><path d="M170 428 C 166 378 234 378 230 428 Z" fill="#FFFFFF" stroke="#00008b" stroke-width="7" stroke-linecap="round" stroke-linejoin="round"></path><ellipse cx="200" cy="360" rx="34" ry="29.24" fill="#FFFFFF" stroke="#00008b" stroke-width="7"></ellipse><path d="M282 424 L 282 354 C 282 338 350 338 350 354 L 350 424" fill="none" stroke="#00008b" stroke-width="7" stroke-linecap="round" stroke-linejoin="round"></path><path d="M286 428 C 282 378 350 378 346 428 Z" fill="#FFFFFF" stroke="#00008b" stroke-width="7" stroke-linecap="round" stroke-linejoin="round"></path><ellipse cx="316" cy="360" rx="34" ry="29.24" fill="#FFFFFF" stroke="#00008b" stroke-width="7"></ellipse><path transform="translate(256 150) scale(1.1)" d="M0 8 C -14 -6 -10 -20 0 -14 C 10 -20 14 -6 0 8 Z" fill="#00008b"></path><path transform="translate(316 168) scale(0.8)" d="M0 8 C -14 -6 -10 -20 0 -14 C 10 -20 14 -6 0 8 Z" fill="#00008b"></path></svg>