<svg xmlns="http://www.w3.org/2000/svg" width="512" height="512" viewBox="0 0 512 512"><g transform="translate(256 262) scale(1.18)"><path d="M-14 124 C -16 140 -17 152 -18 162" fill="none" stroke="#00008b" stroke-width="18" stroke-linecap="round" stroke-linejoin="round"></path><path d="M-14 124 C -16 140 -17 152 -18 162" fill="none" stroke="#FFFFFF" stroke-width="8" stroke-linecap="round" stroke-linejoin="round"></path><path d="M16 124 C 18 140 19 152 20 162" fill="none" stroke="#00008b" stroke-width="18" stroke-linecap="round" stroke-linejoin="round"></path><path d="M16 124 C 18 140 19 152 20 162" fill="none" stroke="#FFFFFF" stroke-width="8" stroke-linecap="round" stroke-linejoin="round"></path><ellipse cx="-34" cy="170" rx="33" ry="13" transform="rotate(-5 -34 170)" fill="#FFFFFF" stroke="#00008b" stroke-width="7"></ellipse><ellipse cx="40" cy="170" rx="33" ry="13" transform="rotate(5 40 170)" fill="#FFFFFF" stroke="#00008b" stroke-width="7"></ellipse><path d="M-24 -52 C -30 0 -32 60 -28 128 L 30 128 C 34 60 32 0 26 -52 Z" fill="#FFFFFF" stroke="#00008b" stroke-width="7" stroke-linecap="round" stroke-linejoin="round"></path><path d="M-24 -40 C -52 -48 -76 -70 -88 -98" fill="none" stroke="#00008b" stroke-width="18" stroke-linecap="round" stroke-linejoin="round"></path><path d="M-24 -40 C -52 -48 -76 -70 -88 -98" fill="none" stroke="#FFFFFF" stroke-width="8" stroke-linecap="round" stroke-linejoin="round"></path><path d="M26 -40 C 54 -48 78 -70 90 -98" fill="none" stroke="#00008b" stroke-width="18" stroke-linecap="round" stroke-linejoin="round"></path><path d="M26 -40 C 54 -48 78 -70 90 -98" fill="none" stroke="#FFFFFF" stroke-width="8" stroke-linecap="round" stroke-linejoin="round"></path><ellipse cx="0" cy="-108" rx="72" ry="58" fill="#FFFFFF" stroke="#00008b" stroke-width="7"></ellipse></g><circle cx="134" cy="96" r="24" fill="#e8eaf8" stroke="#00008b" stroke-width="7"></circle><circle cx="134" cy="96" r="13.200000000000001" fill="none" stroke="#00008b" stroke-width="5"></circle><circle cx="380" cy="96" r="24" fill="#e8eaf8" stroke="#00008b" stroke-width="7"></circle><circle cx="380" cy="96" r="13.200000000000001" fill="none" stroke="#00008b" stroke-width="5"></circle><path d="M235.1 31 L224.1 23.299999999999997" fill="none" stroke="#00008b" stroke-width="6" stroke-linecap="round" stroke-linejoin="round"></path><path d="M256 24.4 L256 11.199999999999996" fill="none" stroke="#00008b" stroke-width="6" stroke-linecap="round" stroke-linejoin="round"></path><path d="M276.9 31 L287.9 23.299999999999997" fill="none" stroke="#00008b" stroke-width="6" stroke-linecap="round" stroke-linejoin="round"></path><path d="M227.4 45.3 L214.2 44.2" fill="none" stroke="#00008b" stroke-width="6" stroke-linecap="round" stroke-linejoin="round"></path><path d="M284.6 45.3 L297.8 44.2" fill="none" stroke="#00008b" stroke-width="6" stroke-linecap="round" stroke-linejoin="round"></path></svg>