<svg xmlns="http://www.w3.org/2000/svg" width="512" height="512" viewBox="0 0 512 512"><g transform="translate(256 278) scale(1.08)"><path d="M-14 124 C -16 140 -17 152 -18 162" fill="none" stroke="#1B66DB" stroke-width="18" stroke-linecap="round" stroke-linejoin="round"></path><path d="M-14 124 C -16 140 -17 152 -18 162" fill="none" stroke="#FFFFFF" stroke-width="8" stroke-linecap="round" stroke-linejoin="round"></path><path d="M16 124 C 18 140 19 152 20 162" fill="none" stroke="#1B66DB" stroke-width="18" stroke-linecap="round" stroke-linejoin="round"></path><path d="M16 124 C 18 140 19 152 20 162" fill="none" stroke="#FFFFFF" stroke-width="8" stroke-linecap="round" stroke-linejoin="round"></path><ellipse cx="-34" cy="170" rx="33" ry="13" transform="rotate(-5 -34 170)" fill="#FFFFFF" stroke="#1B66DB" stroke-width="7"></ellipse><ellipse cx="40" cy="170" rx="33" ry="13" transform="rotate(5 40 170)" fill="#FFFFFF" stroke="#1B66DB" stroke-width="7"></ellipse><path d="M-24 -52 C -30 0 -32 60 -28 128 L 30 128 C 34 60 32 0 26 -52 Z" fill="#FFFFFF" stroke="#1B66DB" stroke-width="7" stroke-linecap="round" stroke-linejoin="round"></path><path d="M-24 -36 C -18 -16 -12 -2 -4 6" fill="none" stroke="#1B66DB" stroke-width="18" stroke-linecap="round" stroke-linejoin="round"></path><path d="M-24 -36 C -18 -16 -12 -2 -4 6" fill="none" stroke="#FFFFFF" stroke-width="8" stroke-linecap="round" stroke-linejoin="round"></path><path d="M26 -36 C 20 -16 14 -2 6 6" fill="none" stroke="#1B66DB" stroke-width="18" stroke-linecap="round" stroke-linejoin="round"></path><path d="M26 -36 C 20 -16 14 -2 6 6" fill="none" stroke="#FFFFFF" stroke-width="8" stroke-linecap="round" stroke-linejoin="round"></path><ellipse cx="0" cy="-108" rx="72" ry="58" fill="#FFFFFF" stroke="#1B66DB" stroke-width="7"></ellipse></g><g transform="translate(256 226) scale(0.9)"><path d="M-44 -34 L 44 -34 C 42 6 26 30 0 30 C -26 30 -42 6 -44 -34 Z" fill="#D9E8FB" stroke="#1B66DB" stroke-width="7" stroke-linecap="round" stroke-linejoin="round"></path><path d="M-44 -26 C -70 -24 -70 4 -40 8" fill="none" stroke="#1B66DB" stroke-width="6" stroke-linecap="round" stroke-linejoin="round"></path><path d="M44 -26 C 70 -24 70 4 40 8" fill="none" stroke="#1B66DB" stroke-width="6" stroke-linecap="round" stroke-linejoin="round"></path><path d="M0 30 L 0 46" fill="none" stroke="#1B66DB" stroke-width="16" stroke-linecap="round" stroke-linejoin="round"></path><path d="M0 30 L 0 46" fill="none" stroke="#FFFFFF" stroke-width="6" stroke-linecap="round" stroke-linejoin="round"></path><path d="M-26 46 L 26 46 L 30 60 L -30 60 Z" fill="#D9E8FB" stroke="#1B66DB" stroke-width="7" stroke-linecap="round" stroke-linejoin="round"></path></g><path d="M229.4 44 L215.4 34.2" fill="none" stroke="#1B66DB" stroke-width="6" stroke-linecap="round" stroke-linejoin="round"></path><path d="M256 35.6 L256 18.800000000000004" fill="none" stroke="#1B66DB" stroke-width="6" stroke-linecap="round" stroke-linejoin="round"></path><path d="M282.6 44 L296.6 34.2" fill="none" stroke="#1B66DB" stroke-width="6" stroke-linecap="round" stroke-linejoin="round"></path><path d="M219.6 62.2 L202.8 60.8" fill="none" stroke="#1B66DB" stroke-width="6" stroke-linecap="round" stroke-linejoin="round"></path><path d="M292.4 62.2 L309.2 60.8" fill="none" stroke="#1B66DB" stroke-width="6" stroke-linecap="round" stroke-linejoin="round"></path></svg>