<svg xmlns="http://www.w3.org/2000/svg" width="512" height="512" viewBox="0 0 512 512"><path d="M110 452 L 230 452 L 230 392 L 110 392 Z" fill="#e8eaf8" stroke="#00008b" stroke-width="7" stroke-linecap="round" stroke-linejoin="round"></path><path d="M230 452 L 350 452 L 350 332 L 230 332 Z" fill="#e8eaf8" stroke="#00008b" stroke-width="7" stroke-linecap="round" stroke-linejoin="round"></path><path d="M350 452 L 458 452 L 458 262 L 350 262 Z" fill="#e8eaf8" stroke="#00008b" stroke-width="7" stroke-linecap="round" stroke-linejoin="round"></path><g transform="translate(180 250) scale(0.98) rotate(4)"><path d="M-14 124 C -20 142 -24 152 -28 160" fill="none" stroke="#00008b" stroke-width="18" stroke-linecap="round" stroke-linejoin="round"></path><path d="M-14 124 C -20 142 -24 152 -28 160" fill="none" stroke="#FFFFFF" stroke-width="8" stroke-linecap="round" stroke-linejoin="round"></path><path d="M16 120 C 30 106 44 100 58 100" fill="none" stroke="#00008b" stroke-width="18" stroke-linecap="round" stroke-linejoin="round"></path><path d="M16 120 C 30 106 44 100 58 100" fill="none" stroke="#FFFFFF" stroke-width="8" stroke-linecap="round" stroke-linejoin="round"></path><ellipse cx="-44" cy="166" rx="30" ry="12" transform="rotate(-10 -44 166)" fill="#FFFFFF" stroke="#00008b" stroke-width="7"></ellipse><ellipse cx="84" cy="104" rx="30" ry="12" transform="rotate(-16 84 104)" fill="#FFFFFF" stroke="#00008b" stroke-width="7"></ellipse><path d="M-24 -52 C -30 0 -32 60 -28 128 L 30 128 C 34 60 32 0 26 -52 Z" fill="#FFFFFF" stroke="#00008b" stroke-width="7" stroke-linecap="round" stroke-linejoin="round"></path><path d="M-24 -36 C -34 -8 -38 22 -40 48" fill="none" stroke="#00008b" stroke-width="18" stroke-linecap="round" stroke-linejoin="round"></path><path d="M-24 -36 C -34 -8 -38 22 -40 48" fill="none" stroke="#FFFFFF" stroke-width="8" stroke-linecap="round" stroke-linejoin="round"></path><path d="M26 -40 C 52 -56 74 -66 96 -70" fill="none" stroke="#00008b" stroke-width="18" stroke-linecap="round" stroke-linejoin="round"></path><path d="M26 -40 C 52 -56 74 -66 96 -70" fill="none" stroke="#FFFFFF" stroke-width="8" stroke-linecap="round" stroke-linejoin="round"></path><ellipse cx="10" cy="-110" rx="72" ry="58" transform="rotate(12 10 -110)" fill="#FFFFFF" stroke="#00008b" stroke-width="7"></ellipse></g><path d="M382 200 L 404 168 L 426 200" fill="none" stroke="#00008b" stroke-width="8" stroke-linecap="round" stroke-linejoin="round"></path><path d="M404 172 L 404 236" fill="none" stroke="#00008b" stroke-width="8" stroke-linecap="round" stroke-linejoin="round"></path></svg>