<svg xmlns="http://www.w3.org/2000/svg" width="512" height="512" viewBox="0 0 512 512"><g transform="translate(256 282) scale(1.05)"><path d="M-14 124 C -16 140 -17 152 -18 162" fill="none" stroke="#00008b" stroke-width="18" stroke-linecap="round" stroke-linejoin="round"></path><path d="M-14 124 C -16 140 -17 152 -18 162" fill="none" stroke="#FFFFFF" stroke-width="8" stroke-linecap="round" stroke-linejoin="round"></path><path d="M16 124 C 18 140 19 152 20 162" fill="none" stroke="#00008b" stroke-width="18" stroke-linecap="round" stroke-linejoin="round"></path><path d="M16 124 C 18 140 19 152 20 162" fill="none" stroke="#FFFFFF" stroke-width="8" stroke-linecap="round" stroke-linejoin="round"></path><ellipse cx="-34" cy="170" rx="33" ry="13" transform="rotate(-5 -34 170)" fill="#FFFFFF" stroke="#00008b" stroke-width="7"></ellipse><ellipse cx="40" cy="170" rx="33" ry="13" transform="rotate(5 40 170)" fill="#FFFFFF" stroke="#00008b" stroke-width="7"></ellipse><path d="M-24 -52 C -30 0 -32 60 -28 128 L 30 128 C 34 60 32 0 26 -52 Z" fill="#FFFFFF" stroke="#00008b" stroke-width="7" stroke-linecap="round" stroke-linejoin="round"></path><path d="M-24 -36 C -12 -20 -4 -12 3 -6" fill="none" stroke="#00008b" stroke-width="18" stroke-linecap="round" stroke-linejoin="round"></path><path d="M-24 -36 C -12 -20 -4 -12 3 -6" fill="none" stroke="#FFFFFF" stroke-width="8" stroke-linecap="round" stroke-linejoin="round"></path><path d="M26 -36 C 14 -20 6 -12 -1 -6" fill="none" stroke="#00008b" stroke-width="18" stroke-linecap="round" stroke-linejoin="round"></path><path d="M26 -36 C 14 -20 6 -12 -1 -6" fill="none" stroke="#FFFFFF" stroke-width="8" stroke-linecap="round" stroke-linejoin="round"></path><ellipse cx="0" cy="-108" rx="72" ry="58" fill="#FFFFFF" stroke="#00008b" stroke-width="7"></ellipse></g><g transform="translate(256 46)"><path d="M-30 18 C -30 -14 -14 -28 0 -28 C 14 -28 30 -14 30 18 L 38 30 L -38 30 Z" fill="#e8eaf8" stroke="#00008b" stroke-width="7" stroke-linecap="round" stroke-linejoin="round"></path><path d="M-8 42 C -4 48 4 48 8 42" fill="none" stroke="#00008b" stroke-width="6" stroke-linecap="round" stroke-linejoin="round"></path><path d="M0 -28 L 0 -38" fill="none" stroke="#00008b" stroke-width="6" stroke-linecap="round" stroke-linejoin="round"></path><path d="M-50 -18 C -56 -10 -58 0 -56 8" fill="none" stroke="#00008b" stroke-width="5" stroke-linecap="round" stroke-linejoin="round"></path><path d="M50 -18 C 56 -10 58 0 56 8" fill="none" stroke="#00008b" stroke-width="5" stroke-linecap="round" stroke-linejoin="round"></path></g></svg>