<svg xmlns="http://www.w3.org/2000/svg" width="512" height="512" viewBox="0 0 512 512"><g transform="translate(276 268) scale(1.08)"><path d="M-14 124 C -16 140 -17 152 -18 162" fill="none" stroke="#00008b" stroke-width="18" stroke-linecap="round" stroke-linejoin="round"></path><path d="M-14 124 C -16 140 -17 152 -18 162" fill="none" stroke="#FFFFFF" stroke-width="8" stroke-linecap="round" stroke-linejoin="round"></path><path d="M16 124 C 18 140 19 152 20 162" fill="none" stroke="#00008b" stroke-width="18" stroke-linecap="round" stroke-linejoin="round"></path><path d="M16 124 C 18 140 19 152 20 162" fill="none" stroke="#FFFFFF" stroke-width="8" stroke-linecap="round" stroke-linejoin="round"></path><ellipse cx="-34" cy="170" rx="33" ry="13" transform="rotate(-5 -34 170)" fill="#FFFFFF" stroke="#00008b" stroke-width="7"></ellipse><ellipse cx="40" cy="170" rx="33" ry="13" transform="rotate(5 40 170)" fill="#FFFFFF" stroke="#00008b" stroke-width="7"></ellipse><path d="M-46 -26 C -56 14 -50 72 -30 124 L 30 124 C 34 64 16 8 -14 -34 Z" fill="#FFFFFF" stroke="#00008b" stroke-width="7" stroke-linecap="round" stroke-linejoin="round"></path><path d="M-36 -20 C -44 8 -48 30 -50 50" fill="none" stroke="#00008b" stroke-width="18" stroke-linecap="round" stroke-linejoin="round"></path><path d="M-36 -20 C -44 8 -48 30 -50 50" fill="none" stroke="#FFFFFF" stroke-width="8" stroke-linecap="round" stroke-linejoin="round"></path><path d="M-20 -28 C -28 0 -32 24 -34 46" fill="none" stroke="#00008b" stroke-width="18" stroke-linecap="round" stroke-linejoin="round"></path><path d="M-20 -28 C -28 0 -32 24 -34 46" fill="none" stroke="#FFFFFF" stroke-width="8" stroke-linecap="round" stroke-linejoin="round"></path><ellipse cx="-58" cy="-64" rx="66" ry="54" transform="rotate(-28 -58 -64)" fill="#FFFFFF" stroke="#00008b" stroke-width="7"></ellipse></g><g transform="translate(408 122)"><circle cx="0" cy="0" r="38" fill="#e8eaf8" stroke="#00008b" stroke-width="7"></circle><path d="M0 -17 L 0 5" fill="none" stroke="#00008b" stroke-width="9" stroke-linecap="round" stroke-linejoin="round"></path><circle cx="0" cy="20" r="5" fill="#00008b" stroke="none" stroke-width="0"></circle></g></svg>