<svg xmlns="http://www.w3.org/2000/svg" width="512" height="512" viewBox="0 0 512 512"><g transform="translate(184 262) scale(1.06)"><path d="M-14 124 C -16 140 -17 152 -18 162" fill="none" stroke="#1B66DB" stroke-width="18" stroke-linecap="round" stroke-linejoin="round"></path><path d="M-14 124 C -16 140 -17 152 -18 162" fill="none" stroke="#FFFFFF" stroke-width="8" stroke-linecap="round" stroke-linejoin="round"></path><path d="M16 124 C 18 140 19 152 20 162" fill="none" stroke="#1B66DB" stroke-width="18" stroke-linecap="round" stroke-linejoin="round"></path><path d="M16 124 C 18 140 19 152 20 162" fill="none" stroke="#FFFFFF" stroke-width="8" stroke-linecap="round" stroke-linejoin="round"></path><ellipse cx="-34" cy="170" rx="33" ry="13" transform="rotate(-5 -34 170)" fill="#FFFFFF" stroke="#1B66DB" stroke-width="7"></ellipse><ellipse cx="40" cy="170" rx="33" ry="13" transform="rotate(5 40 170)" fill="#FFFFFF" stroke="#1B66DB" stroke-width="7"></ellipse><path d="M-24 -52 C -30 0 -32 60 -28 128 L 30 128 C 34 60 32 0 26 -52 Z" fill="#FFFFFF" stroke="#1B66DB" stroke-width="7" stroke-linecap="round" stroke-linejoin="round"></path><path d="M-24 -40 C -36 -10 -40 20 -42 48" fill="none" stroke="#1B66DB" stroke-width="18" stroke-linecap="round" stroke-linejoin="round"></path><path d="M-24 -40 C -36 -10 -40 20 -42 48" fill="none" stroke="#FFFFFF" stroke-width="8" stroke-linecap="round" stroke-linejoin="round"></path><path d="M26 -40 C 38 -10 42 20 44 48" fill="none" stroke="#1B66DB" stroke-width="18" stroke-linecap="round" stroke-linejoin="round"></path><path d="M26 -40 C 38 -10 42 20 44 48" fill="none" stroke="#FFFFFF" stroke-width="8" stroke-linecap="round" stroke-linejoin="round"></path><ellipse cx="8" cy="-108" rx="72" ry="58" transform="rotate(8 8 -108)" fill="#FFFFFF" stroke="#1B66DB" stroke-width="7"></ellipse></g><g transform="translate(360 300)"><path d="M-58 40 C -58 -24 -28 -52 0 -52 C 28 -52 58 -24 58 40 L 72 62 L -72 62 Z" fill="#D9E8FB" stroke="#1B66DB" stroke-width="7" stroke-linecap="round" stroke-linejoin="round"></path><path d="M-14 84 C -8 94 8 94 14 84" fill="none" stroke="#1B66DB" stroke-width="8" stroke-linecap="round" stroke-linejoin="round"></path><path d="M0 -52 L 0 -70" fill="none" stroke="#1B66DB" stroke-width="8" stroke-linecap="round" stroke-linejoin="round"></path><text x="70" y="-84" font-family="Georgia, serif" font-size="44" fill="#1B66DB" font-style="italic">z</text><text x="102" y="-116" font-family="Georgia, serif" font-size="32" fill="#1B66DB" font-style="italic">z</text></g></svg>