<svg xmlns="http://www.w3.org/2000/svg" width="512" height="512" viewBox="0 0 512 512"><g transform="translate(256 262) scale(1.14)"><path d="M-14 124 C -16 140 -17 152 -18 162" fill="none" stroke="#00008b" stroke-width="18" stroke-linecap="round" stroke-linejoin="round"></path><path d="M-14 124 C -16 140 -17 152 -18 162" fill="none" stroke="#FFFFFF" stroke-width="8" stroke-linecap="round" stroke-linejoin="round"></path><path d="M16 124 C 18 140 19 152 20 162" fill="none" stroke="#00008b" stroke-width="18" stroke-linecap="round" stroke-linejoin="round"></path><path d="M16 124 C 18 140 19 152 20 162" fill="none" stroke="#FFFFFF" stroke-width="8" stroke-linecap="round" stroke-linejoin="round"></path><ellipse cx="-34" cy="170" rx="33" ry="13" transform="rotate(-5 -34 170)" fill="#FFFFFF" stroke="#00008b" stroke-width="7"></ellipse><ellipse cx="40" cy="170" rx="33" ry="13" transform="rotate(5 40 170)" fill="#FFFFFF" stroke="#00008b" stroke-width="7"></ellipse><path d="M-24 -52 C -30 0 -32 60 -28 128 L 30 128 C 34 60 32 0 26 -52 Z" fill="#FFFFFF" stroke="#00008b" stroke-width="7" stroke-linecap="round" stroke-linejoin="round"></path><g transform="translate(0 12)"><path d="M-52 -56 C -18 -66 18 -66 52 -56 C 56 -6 38 44 0 62 C -38 44 -56 -6 -52 -56 Z" fill="#e8eaf8" stroke="#00008b" stroke-width="7" stroke-linecap="round" stroke-linejoin="round"></path><path d="M-18 -4 L -6 10 L 22 -22" fill="none" stroke="#00008b" stroke-width="8" stroke-linecap="round" stroke-linejoin="round"></path></g><path d="M-24 -36 C -46 -22 -46 6 -24 18" fill="none" stroke="#00008b" stroke-width="18" stroke-linecap="round" stroke-linejoin="round"></path><path d="M-24 -36 C -46 -22 -46 6 -24 18" fill="none" stroke="#FFFFFF" stroke-width="8" stroke-linecap="round" stroke-linejoin="round"></path><path d="M26 -36 C 48 -22 48 6 26 18" fill="none" stroke="#00008b" stroke-width="18" stroke-linecap="round" stroke-linejoin="round"></path><path d="M26 -36 C 48 -22 48 6 26 18" fill="none" stroke="#FFFFFF" stroke-width="8" stroke-linecap="round" stroke-linejoin="round"></path><ellipse cx="0" cy="-108" rx="72" ry="58" fill="#FFFFFF" stroke="#00008b" stroke-width="7"></ellipse></g><path d="M235.1 41 L224.1 33.3" fill="none" stroke="#00008b" stroke-width="6" stroke-linecap="round" stroke-linejoin="round"></path><path d="M256 34.4 L256 21.199999999999996" fill="none" stroke="#00008b" stroke-width="6" stroke-linecap="round" stroke-linejoin="round"></path><path d="M276.9 41 L287.9 33.3" fill="none" stroke="#00008b" stroke-width="6" stroke-linecap="round" stroke-linejoin="round"></path><path d="M227.4 55.3 L214.2 54.2" fill="none" stroke="#00008b" stroke-width="6" stroke-linecap="round" stroke-linejoin="round"></path><path d="M284.6 55.3 L297.8 54.2" fill="none" stroke="#00008b" stroke-width="6" stroke-linecap="round" stroke-linejoin="round"></path></svg>