<svg xmlns="http://www.w3.org/2000/svg" width="512" height="512" viewBox="0 0 512 512"><g transform="translate(256 268) scale(1.14)"><path d="M-14 124 C -16 140 -17 152 -18 162" fill="none" stroke="#1B66DB" stroke-width="18" stroke-linecap="round" stroke-linejoin="round"></path><path d="M-14 124 C -16 140 -17 152 -18 162" fill="none" stroke="#FFFFFF" stroke-width="8" stroke-linecap="round" stroke-linejoin="round"></path><path d="M16 124 C 18 140 19 152 20 162" fill="none" stroke="#1B66DB" stroke-width="18" stroke-linecap="round" stroke-linejoin="round"></path><path d="M16 124 C 18 140 19 152 20 162" fill="none" stroke="#FFFFFF" stroke-width="8" stroke-linecap="round" stroke-linejoin="round"></path><ellipse cx="-34" cy="170" rx="33" ry="13" transform="rotate(-5 -34 170)" fill="#FFFFFF" stroke="#1B66DB" stroke-width="7"></ellipse><ellipse cx="40" cy="170" rx="33" ry="13" transform="rotate(5 40 170)" fill="#FFFFFF" stroke="#1B66DB" stroke-width="7"></ellipse><path d="M-24 -52 C -30 0 -32 60 -28 128 L 30 128 C 34 60 32 0 26 -52 Z" fill="#FFFFFF" stroke="#1B66DB" stroke-width="7" stroke-linecap="round" stroke-linejoin="round"></path><path d="M-24 -40 C -46 -28 -62 -22 -74 -16" fill="none" stroke="#1B66DB" stroke-width="18" stroke-linecap="round" stroke-linejoin="round"></path><path d="M-24 -40 C -46 -28 -62 -22 -74 -16" fill="none" stroke="#FFFFFF" stroke-width="8" stroke-linecap="round" stroke-linejoin="round"></path><path d="M26 -40 C 48 -28 64 -22 76 -16" fill="none" stroke="#1B66DB" stroke-width="18" stroke-linecap="round" stroke-linejoin="round"></path><path d="M26 -40 C 48 -28 64 -22 76 -16" fill="none" stroke="#FFFFFF" stroke-width="8" stroke-linecap="round" stroke-linejoin="round"></path><ellipse cx="0" cy="-108" rx="72" ry="58" fill="#FFFFFF" stroke="#1B66DB" stroke-width="7"></ellipse></g><circle cx="160" cy="212" r="24" fill="#D9E8FB" stroke="#1B66DB" stroke-width="7"></circle><circle cx="160" cy="212" r="13.200000000000001" fill="none" stroke="#1B66DB" stroke-width="5"></circle><circle cx="352" cy="212" r="24" fill="#D9E8FB" stroke="#1B66DB" stroke-width="7"></circle><circle cx="352" cy="212" r="13.200000000000001" fill="none" stroke="#1B66DB" stroke-width="5"></circle><path d="M233.2 36 L221.2 27.6" fill="none" stroke="#1B66DB" stroke-width="6" stroke-linecap="round" stroke-linejoin="round"></path><path d="M256 28.8 L256 14.399999999999999" fill="none" stroke="#1B66DB" stroke-width="6" stroke-linecap="round" stroke-linejoin="round"></path><path d="M278.8 36 L290.8 27.6" fill="none" stroke="#1B66DB" stroke-width="6" stroke-linecap="round" stroke-linejoin="round"></path><path d="M224.8 51.6 L210.4 50.4" fill="none" stroke="#1B66DB" stroke-width="6" stroke-linecap="round" stroke-linejoin="round"></path><path d="M287.2 51.6 L301.6 50.4" fill="none" stroke="#1B66DB" stroke-width="6" stroke-linecap="round" stroke-linejoin="round"></path><path d="M160 172 L 160 186" fill="none" stroke="#1B66DB" stroke-width="5" stroke-linecap="round" stroke-linejoin="round"></path><path d="M352 172 L 352 186" fill="none" stroke="#1B66DB" stroke-width="5" stroke-linecap="round" stroke-linejoin="round"></path></svg>