<svg xmlns="http://www.w3.org/2000/svg" width="512" height="512" viewBox="0 0 512 512"><ellipse cx="256" cy="404" rx="196" ry="44" fill="#e8eaf8" stroke="#e8eaf8" stroke-width="5"></ellipse><g transform="translate(256 252) scale(0.8)"><path d="M-26 4 C -34 -28 -32 -60 -24 -84 L24 -84 C32 -60 34 -28 26 4 C8 12 -8 12 -26 4 Z" fill="#FFFFFF" stroke="#00008b" stroke-width="7" stroke-linecap="round" stroke-linejoin="round"></path><path d="M-24 -74 C -38 -52 -42 -30 -30 -10" fill="none" stroke="#00008b" stroke-width="17" stroke-linecap="round" stroke-linejoin="round"></path><path d="M-24 -74 C -38 -52 -42 -30 -30 -10" fill="none" stroke="#FFFFFF" stroke-width="7" stroke-linecap="round" stroke-linejoin="round"></path><path d="M24 -74 C38 -52 42 -30 30 -10" fill="none" stroke="#00008b" stroke-width="17" stroke-linecap="round" stroke-linejoin="round"></path><path d="M24 -74 C38 -52 42 -30 30 -10" fill="none" stroke="#FFFFFF" stroke-width="7" stroke-linecap="round" stroke-linejoin="round"></path><path d="M-8 0 C -30 8 -46 16 -54 24" fill="none" stroke="#00008b" stroke-width="17" stroke-linecap="round" stroke-linejoin="round"></path><path d="M-8 0 C -30 8 -46 16 -54 24" fill="none" stroke="#FFFFFF" stroke-width="7" stroke-linecap="round" stroke-linejoin="round"></path><path d="M8 0 C30 8 46 16 54 24" fill="none" stroke="#00008b" stroke-width="17" stroke-linecap="round" stroke-linejoin="round"></path><path d="M8 0 C30 8 46 16 54 24" fill="none" stroke="#FFFFFF" stroke-width="7" stroke-linecap="round" stroke-linejoin="round"></path><ellipse cx="-56" cy="26" rx="15" ry="9" transform="rotate(-14 -56 26)" fill="#FFFFFF" stroke="#00008b" stroke-width="7"></ellipse><ellipse cx="56" cy="26" rx="15" ry="9" transform="rotate(14 56 26)" fill="#FFFFFF" stroke="#00008b" stroke-width="7"></ellipse><ellipse cx="0" cy="-128" rx="52" ry="44" fill="#FFFFFF" stroke="#00008b" stroke-width="7"></ellipse></g><g transform="translate(150 330) scale(0.95)"><path d="M4 -4 C 40 2 80 4 116 2" fill="none" stroke="#00008b" stroke-width="18" stroke-linecap="round" stroke-linejoin="round"></path><path d="M4 -4 C 40 2 80 4 116 2" fill="none" stroke="#FFFFFF" stroke-width="8" stroke-linecap="round" stroke-linejoin="round"></path><path d="M2 6 C 38 14 78 18 112 16" fill="none" stroke="#00008b" stroke-width="18" stroke-linecap="round" stroke-linejoin="round"></path><path d="M2 6 C 38 14 78 18 112 16" fill="none" stroke="#FFFFFF" stroke-width="8" stroke-linecap="round" stroke-linejoin="round"></path><ellipse cx="118" cy="0" rx="16" ry="10" transform="rotate(78 118 0)" fill="#FFFFFF" stroke="#00008b" stroke-width="7"></ellipse><ellipse cx="114" cy="16" rx="16" ry="10" transform="rotate(78 114 16)" fill="#FFFFFF" stroke="#00008b" stroke-width="7"></ellipse><path d="M-22 -66 C -44 -44 -56 -16 -58 10" fill="none" stroke="#00008b" stroke-width="17" stroke-linecap="round" stroke-linejoin="round"></path><path d="M-22 -66 C -44 -44 -56 -16 -58 10" fill="none" stroke="#FFFFFF" stroke-width="7" stroke-linecap="round" stroke-linejoin="round"></path><ellipse cx="-58" cy="14" rx="11" ry="8" fill="#FFFFFF" stroke="#00008b" stroke-width="7"></ellipse><g transform="rotate(-15 -8 -30)"><path d="M-24 6 C -34 -26 -34 -58 -26 -82 L24 -82 C32 -58 34 -26 26 6 C8 14 -8 14 -24 6 Z" fill="#FFFFFF" stroke="#00008b" stroke-width="7" stroke-linecap="round" stroke-linejoin="round"></path><path d="M24 -72 C 44 -54 64 -42 82 -34" fill="none" stroke="#00008b" stroke-width="17" stroke-linecap="round" stroke-linejoin="round"></path><path d="M24 -72 C 44 -54 64 -42 82 -34" fill="none" stroke="#FFFFFF" stroke-width="7" stroke-linecap="round" stroke-linejoin="round"></path><ellipse cx="84" cy="-32" rx="11" ry="8" fill="#FFFFFF" stroke="#00008b" stroke-width="7"></ellipse><ellipse cx="0" cy="-122" rx="50" ry="42" transform="rotate(6 0 -122)" fill="#FFFFFF" stroke="#00008b" stroke-width="7"></ellipse></g></g><g transform="translate(374 330) scale(0.95)"><path d="M-24 8 C -34 -22 -34 -54 -26 -78 L24 -78 C32 -54 34 -22 26 8 C8 16 -8 16 -24 8 Z" fill="#FFFFFF" stroke="#00008b" stroke-width="7" stroke-linecap="round" stroke-linejoin="round"></path><path d="M-22 10 C -44 -8 -46 -42 -28 -60 C -14 -74 14 -70 24 -52 C 34 -32 30 -4 12 10 Z" fill="#FFFFFF" stroke="#00008b" stroke-width="7" stroke-linecap="round" stroke-linejoin="round"></path><path d="M-24 -66 C -32 -42 -18 -30 6 -32" fill="none" stroke="#00008b" stroke-width="17" stroke-linecap="round" stroke-linejoin="round"></path><path d="M-24 -66 C -32 -42 -18 -30 6 -32" fill="none" stroke="#FFFFFF" stroke-width="7" stroke-linecap="round" stroke-linejoin="round"></path><path d="M24 -64 C 16 -40 2 -30 -8 -32" fill="none" stroke="#00008b" stroke-width="17" stroke-linecap="round" stroke-linejoin="round"></path><path d="M24 -64 C 16 -40 2 -30 -8 -32" fill="none" stroke="#FFFFFF" stroke-width="7" stroke-linecap="round" stroke-linejoin="round"></path><ellipse cx="-2" cy="-30" rx="11" ry="8" fill="#FFFFFF" stroke="#00008b" stroke-width="7"></ellipse><ellipse cx="-16" cy="12" rx="14" ry="9" transform="rotate(-12 -16 12)" fill="#FFFFFF" stroke="#00008b" stroke-width="7"></ellipse><ellipse cx="16" cy="12" rx="14" ry="9" transform="rotate(12 16 12)" fill="#FFFFFF" stroke="#00008b" stroke-width="7"></ellipse><ellipse cx="0" cy="-118" rx="50" ry="42" transform="rotate(-8 0 -118)" fill="#FFFFFF" stroke="#00008b" stroke-width="7"></ellipse></g><g transform="translate(256 398) scale(1.08)"><path d="M-30 8 C -40 -26 -38 -64 -28 -90 L28 -90 C38 -64 40 -26 30 8 C10 16 -10 16 -30 8 Z" fill="#FFFFFF" stroke="#00008b" stroke-width="7" stroke-linecap="round" stroke-linejoin="round"></path><path d="M-28 -80 C -50 -98 -62 -112 -70 -126" fill="none" stroke="#00008b" stroke-width="18" stroke-linecap="round" stroke-linejoin="round"></path><path d="M-28 -80 C -50 -98 -62 -112 -70 -126" fill="none" stroke="#FFFFFF" stroke-width="8" stroke-linecap="round" stroke-linejoin="round"></path><ellipse cx="-72" cy="-128" rx="11" ry="8" fill="#FFFFFF" stroke="#00008b" stroke-width="7"></ellipse><path d="M28 -80 C 50 -98 62 -112 70 -126" fill="none" stroke="#00008b" stroke-width="18" stroke-linecap="round" stroke-linejoin="round"></path><path d="M28 -80 C 50 -98 62 -112 70 -126" fill="none" stroke="#FFFFFF" stroke-width="8" stroke-linecap="round" stroke-linejoin="round"></path><ellipse cx="72" cy="-128" rx="11" ry="8" fill="#FFFFFF" stroke="#00008b" stroke-width="7"></ellipse><path d="M-8 4 C -34 10 -54 16 -66 22" fill="none" stroke="#00008b" stroke-width="17" stroke-linecap="round" stroke-linejoin="round"></path><path d="M-8 4 C -34 10 -54 16 -66 22" fill="none" stroke="#FFFFFF" stroke-width="7" stroke-linecap="round" stroke-linejoin="round"></path><path d="M8 4 C34 10 54 16 66 22" fill="none" stroke="#00008b" stroke-width="17" stroke-linecap="round" stroke-linejoin="round"></path><path d="M8 4 C34 10 54 16 66 22" fill="none" stroke="#FFFFFF" stroke-width="7" stroke-linecap="round" stroke-linejoin="round"></path><ellipse cx="-68" cy="24" rx="16" ry="10" transform="rotate(-14 -68 24)" fill="#FFFFFF" stroke="#00008b" stroke-width="7"></ellipse><ellipse cx="68" cy="24" rx="16" ry="10" transform="rotate(14 68 24)" fill="#FFFFFF" stroke="#00008b" stroke-width="7"></ellipse><ellipse cx="0" cy="-132" rx="56" ry="47" fill="#FFFFFF" stroke="#00008b" stroke-width="7"></ellipse></g><path transform="translate(256 120) scale(1.3)" d="M0 8 C -14 -6 -10 -20 0 -14 C 10 -20 14 -6 0 8 Z" fill="#00008b" stroke="none"></path><path transform="translate(196 150) scale(0.85)" d="M0 8 C -14 -6 -10 -20 0 -14 C 10 -20 14 -6 0 8 Z" fill="#00008b" stroke="none"></path><path transform="translate(320 146) scale(1)" d="M0 8 C -14 -6 -10 -20 0 -14 C 10 -20 14 -6 0 8 Z" fill="#00008b" stroke="none"></path></svg>