<svg xmlns="http://www.w3.org/2000/svg" width="512" height="512" viewBox="0 0 512 512"><circle cx="92" cy="112" r="32" fill="#e8eaf8" stroke="#00008b" stroke-width="7"></circle><path d="M92 56 L92 42 M42 70 L30 60 M142 70 L154 60 M40 112 L26 112" fill="none" stroke="#00008b" stroke-width="5" stroke-linecap="round" stroke-linejoin="round"></path><path d="M244 322 L244 378 M408 322 L408 378 M176 262 L150 322" fill="none" stroke="#00008b" stroke-width="8" stroke-linecap="round" stroke-linejoin="round"></path><path d="M150 220 L236 298 L420 298 L420 326 L236 326 L168 240 Z" fill="#e8eaf8" stroke="#00008b" stroke-width="7" stroke-linecap="round" stroke-linejoin="round"></path><path d="M198 268 L214 254 M300 312 L300 300 M360 312 L360 300" fill="none" stroke="#00008b" stroke-width="3" stroke-linecap="round" stroke-linejoin="round"></path><ellipse cx="212" cy="242" rx="42" ry="35" transform="rotate(-28 212 242)" fill="#FFFFFF" stroke="#00008b" stroke-width="7"></ellipse><path d="M242 272 C 296 262 350 266 392 282 C 398 296 394 310 386 318 C 348 306 296 304 250 314 C 242 300 238 284 242 272 Z" fill="#FFFFFF" stroke="#00008b" stroke-width="7" stroke-linecap="round" stroke-linejoin="round"></path><path d="M386 298 C 410 304 428 312 444 324" fill="none" stroke="#00008b" stroke-width="16" stroke-linecap="round" stroke-linejoin="round"></path><path d="M386 298 C 410 304 428 312 444 324" fill="none" stroke="#FFFFFF" stroke-width="7" stroke-linecap="round" stroke-linejoin="round"></path><ellipse cx="454" cy="328" rx="24" ry="12" transform="rotate(12 454 328)" fill="#FFFFFF" stroke="#00008b" stroke-width="7"></ellipse><ellipse cx="446" cy="344" rx="24" ry="12" transform="rotate(12 446 344)" fill="#FFFFFF" stroke="#00008b" stroke-width="7"></ellipse><path d="M256 290 C 246 304 244 318 248 330" fill="none" stroke="#00008b" stroke-width="16" stroke-linecap="round" stroke-linejoin="round"></path><path d="M256 290 C 246 304 244 318 248 330" fill="none" stroke="#FFFFFF" stroke-width="7" stroke-linecap="round" stroke-linejoin="round"></path><path d="M232 330 L256 330 L253 352 L235 352 Z" fill="#FFFFFF" stroke="#00008b" stroke-width="5" stroke-linecap="round" stroke-linejoin="round"></path><path d="M244 330 L244 320" fill="none" stroke="#00008b" stroke-width="4" stroke-linecap="round" stroke-linejoin="round"></path></svg>